<?xml version="1.0" encoding="utf-8"?>
<!-- Created by UniConvertor 2.0rc5 (https://sk1project.net/) -->
<svg xmlns="http://www.w3.org/2000/svg" height="19.747px" width="19.747px" version="1.1" xmlns:xlink="http://www.w3.org/1999/xlink" id="cc31d360-5304-11ed-8260-0242ac130007">

<g>
	<path style="fill-rule:evenodd;fill:#ccd4dd;" d="M 16.858,2.889 C 13.006,-0.963 6.741,-0.963 2.888,2.889 -0.962,6.74 -0.962,13.007 2.888,16.859 4.6713,18.6431 7.135,19.747 9.856,19.747 9.8623,19.747 9.8687,19.747 9.875,19.747 12.404,19.747 14.932,18.784 16.858,16.859 20.71,13.007 20.71,6.74 16.858,2.889 Z M 13.948,12.784 C 14.0968,12.933 14.1889,13.1388 14.1889,13.366 14.1889,13.8207 13.8202,14.1894 13.3655,14.1894 13.138,14.1894 12.9321,14.0971 12.783,13.948 L 9.873,11.038 6.964,13.948 C 6.8164,14.0888 6.616,14.1755 6.3955,14.1755 5.9405,14.1755 5.5715,13.8065 5.5715,13.3515 5.5715,13.1305 5.6586,12.9297 5.8003,12.7817 L 8.71,9.872 5.8,6.962 C 5.6515,6.8132 5.5596,6.6078 5.5596,6.381 5.5596,5.9269 5.9279,5.5586 6.382,5.5586 6.6093,5.5586 6.8151,5.6509 6.964,5.8 L 9.874,8.71 12.784,5.8 C 12.9329,5.6513 13.1385,5.5593 13.3655,5.5593 13.8198,5.5593 14.1882,5.9277 14.1882,6.382 14.1882,6.6093 14.096,6.8151 13.947,6.964 L 11.037,9.874 13.947,12.785 13.948,12.784 Z" />
</g>
</svg>