<?xml version="1.0" encoding="utf-8"?>
<!-- Created by UniConvertor 2.0rc5 (https://sk1project.net/) -->
<svg xmlns="http://www.w3.org/2000/svg" height="13.0px" width="11.0px" version="1.1" xmlns:xlink="http://www.w3.org/1999/xlink" id="dcbf53cc-53a1-11ed-8cc2-0242ac150007">

<g>
	<path style="fill-rule:evenodd;fill:#68ddba;" d="M 3.667,11.207 C 3.667,10.371 4.251,9.669 5.042,9.471 L 5.042,7.277 2.251,7.277 C 2.2483,7.277 2.2451,7.277 2.2419,7.277 1.7667,7.277 1.3806,6.8945 1.375,6.4205 L 1.375,3.53 C 0.5843,3.3323 0.0066,2.6309 0.0,1.7937 0.0,0.803 0.82,0.0 1.834,0.0 2.846,0.0 3.667,0.803 3.667,1.793 3.667,2.581 3.147,3.249 2.427,3.49 L 2.427,6.25 8.653,6.25 8.653,3.515 C 7.8899,3.2988 7.339,2.6109 7.333,1.7937 7.333,0.803 8.154,0.0 9.167,0.0 10.179,0.0 11.0,0.803 11.0,1.793 10.994,2.6021 10.4547,3.2839 9.7167,3.5047 L 9.704,6.42 C 9.6984,6.8945 9.3123,7.2771 8.8371,7.2771 8.8335,7.2771 8.83,7.277 8.8265,7.277 L 6.187,7.277 6.187,9.544 C 6.859,9.81 7.333,10.454 7.333,11.207 7.333,12.197 6.513,13.0 5.5,13.0 4.488,13.0 3.667,12.198 3.667,11.207 Z M 4.813,11.207 C 4.813,11.577 5.121,11.88 5.5,11.88 5.5021,11.88 5.5046,11.88 5.507,11.88 5.8801,11.88 6.1831,11.5795 6.187,11.2074 6.1825,10.8349 5.8797,10.535 5.507,10.535 5.5046,10.535 5.5021,10.535 5.4996,10.535 5.4982,10.535 5.4961,10.535 5.4939,10.535 5.1211,10.535 4.8181,10.8348 4.813,11.2065 Z M 8.479,1.793 C 8.479,2.164 8.788,2.465 9.167,2.465 9.1691,2.465 9.1716,2.465 9.174,2.465 9.5467,2.465 9.8495,2.1651 9.854,1.7934 9.8495,1.4209 9.5467,1.121 9.174,1.121 9.1716,1.121 9.1691,1.121 9.1666,1.121 9.1649,1.121 9.1624,1.121 9.1599,1.121 8.787,1.121 8.4841,1.4208 8.479,1.7925 Z M 1.146,1.793 C 1.146,2.164 1.455,2.465 1.834,2.465 1.8361,2.465 1.8386,2.465 1.841,2.465 2.2137,2.465 2.5165,2.1651 2.521,1.7934 2.5159,1.4208 2.2129,1.121 1.8401,1.121 1.8379,1.121 1.8358,1.121 1.8337,1.121 1.8319,1.121 1.8294,1.121 1.8269,1.121 1.454,1.121 1.1511,1.4208 1.146,1.7925 Z" />
</g>
</svg>