<?xml version="1.0" encoding="utf-8"?>
<!-- Created by UniConvertor 2.0rc5 (https://sk1project.net/) -->
<svg xmlns="http://www.w3.org/2000/svg" height="17.746px" width="14.557px" version="1.1" xmlns:xlink="http://www.w3.org/1999/xlink" id="bfc8301a-52f5-11ed-bdfe-0242ac180007">

<g>
	<path style="fill-rule:evenodd;fill:#68ddba;" d="M 1.56,17.745 L 14.557,17.745 14.557,2.079 13.517,2.079 13.517,-0.001 1.56,-0.001 C 0.7,-0.001 0.0,0.699 0.0,1.559 L 0.0,16.186 C 0.0,17.046 0.7,17.746 1.56,17.746 L 1.56,17.745 Z M 1.04,16.185 L 1.04,3.031 C 1.203,3.088 1.377,3.12 1.56,3.12 L 2.08,3.12 2.08,16.707 1.56,16.707 C 1.2729,16.707 1.04,16.4741 1.04,16.187 L 1.04,16.185 Z M 13.517,16.705 L 3.12,16.705 3.12,3.12 8.32,3.12 8.32,8.77 10.397,7.383 12.477,8.769 12.477,3.119 13.517,3.119 13.517,16.706 13.517,16.705 Z M 9.358,3.12 L 11.438,3.12 11.438,6.828 10.398,6.134 9.358,6.828 9.358,3.119 9.358,3.12 Z M 1.56,1.039 L 12.477,1.039 12.477,2.079 1.56,2.079 C 1.2729,2.079 1.04,1.8461 1.04,1.559 1.04,1.2719 1.2729,1.039 1.56,1.039 Z M 1.56,1.039" />
</g>
</svg>