<?xml version="1.0" encoding="utf-8"?>
<!-- Created by UniConvertor 2.0rc5 (https://sk1project.net/) -->
<svg xmlns="http://www.w3.org/2000/svg" height="14.526px" width="14.526px" version="1.1" xmlns:xlink="http://www.w3.org/1999/xlink" id="0882a8e6-55e2-11ed-b10e-0242ac130007">

<g>
	<g>
		<path style="fill-rule:evenodd;fill:#7b848d;" d="M 6.397,0.0 C 2.8662,0.004 0.004,2.8662 0.0,6.3966 0.004,9.9278 2.8662,12.79 6.3966,12.794 9.9278,12.79 12.79,9.9278 12.794,6.3974 12.79,2.8662 9.9278,0.004 6.3974,0.0 Z M 6.397,11.613 C 3.5181,11.6096 1.1844,9.2759 1.181,6.3973 1.1844,3.5181 3.5181,1.1844 6.3967,1.181 9.2759,1.1844 11.6096,3.5181 11.613,6.3967 11.6096,9.2759 9.2759,11.6096 6.3973,11.613 Z" />
		<path style="fill-rule:evenodd;fill:#7b848d;" d="M 14.352,13.518 L 10.967,10.133 C 10.8601,10.0262 10.7125,9.9601 10.5495,9.9601 10.2235,9.9601 9.9591,10.2245 9.9591,10.5505 9.9591,10.7135 10.0252,10.8611 10.132,10.968 L 13.518,14.353 C 13.6246,14.4604 13.7723,14.5269 13.9355,14.5269 14.0987,14.5269 14.2464,14.4604 14.3529,14.353 14.4599,14.2462 14.5261,14.0985 14.5261,13.9355 14.5261,13.7725 14.4599,13.6248 14.353,13.518 L 14.352,13.518 Z" />
	</g>
</g>
</svg>