<?xml version="1.0" encoding="utf-8"?>
<!-- Created by UniConvertor 2.0rc5 (https://sk1project.net/) -->
<svg xmlns="http://www.w3.org/2000/svg" height="11.642px" width="12.137px" version="1.1" xmlns:xlink="http://www.w3.org/1999/xlink" id="e6f5421c-52f1-11ed-8b7a-0242ac160007">

<g>
	<path style="fill-rule:evenodd;fill:#68ddba;" d="M 9.212,11.642 C 9.212,11.642 9.212,11.642 9.212,11.642 9.0444,11.642 8.8867,11.5998 8.7489,11.5254 L 6.134,10.151 C 6.1149,10.1406 6.0922,10.1345 6.068,10.1345 6.0438,10.1345 6.0211,10.1406 6.0013,10.1514 L 3.382,11.528 C 3.2497,11.5986 3.0927,11.6402 2.926,11.6402 2.3832,11.6402 1.943,11.2 1.943,10.6572 1.943,10.5988 1.9481,10.5417 1.9579,10.4861 L 2.457,7.575 C 2.4582,7.568 2.4589,7.5599 2.4589,7.5517 2.4589,7.5113 2.4421,7.4749 2.415,7.4491 L 0.297,5.382 C 0.1143,5.2033 0.0009,4.9543 0.0009,4.6788 0.0009,4.1858 0.3642,3.7773 0.8376,3.7067 L 3.77,3.28 C 3.8173,3.2729 3.8564,3.2434 3.8766,3.2028 L 5.186,0.548 C 5.3499,0.2207 5.6827,-0.0002 6.067,-0.0002 6.4513,-0.0002 6.7841,0.2207 6.9454,0.5424 L 8.258,3.202 C 8.278,3.244 8.318,3.272 8.364,3.28 L 11.294,3.705 C 11.7732,3.7759 12.137,4.1846 12.137,4.678 12.137,4.9539 12.0233,5.2032 11.8402,5.3818 L 9.72,7.447 C 9.6928,7.4729 9.6759,7.5094 9.6759,7.5498 9.6759,7.5584 9.6767,7.5667 9.6781,7.5749 L 10.178,10.49 C 10.187,10.5399 10.1921,10.5974 10.1921,10.656 10.1921,11.198 9.7537,11.6378 9.2122,11.64 L 9.212,11.642 Z M 6.068,9.294 C 6.228,9.294 6.385,9.333 6.526,9.407 L 9.146,10.784 C 9.1652,10.7952 9.1883,10.8018 9.213,10.8018 9.244,10.8018 9.2725,10.7913 9.2953,10.7738 9.3312,10.749 9.3547,10.7077 9.3547,10.6609 9.3547,10.6514 9.3537,10.6421 9.3518,10.6331 L 8.852,7.717 C 8.843,7.6671 8.8379,7.6096 8.8379,7.551 8.8379,7.2753 8.9512,7.026 9.1339,6.8472 L 11.254,4.781 C 11.2803,4.7552 11.2965,4.7193 11.2965,4.6797 11.2965,4.6081 11.2436,4.5489 11.1748,4.5391 L 8.245,4.113 C 7.9186,4.0645 7.6482,3.8613 7.5076,3.5816 L 6.196,0.922 C 6.1723,0.8745 6.1242,0.8425 6.0685,0.8425 6.0128,0.8425 5.9647,0.8745 5.9414,0.9212 L 4.63,3.575 C 4.4868,3.8603 4.2164,4.0635 3.8954,4.1113 L 0.962,4.54 C 0.8932,4.5507 0.8412,4.6095 0.8412,4.6804 0.8412,4.7202 0.8576,4.7562 0.884,4.782 L 3.004,6.848 C 3.1868,7.027 3.3001,7.2763 3.3001,7.552 3.3001,7.6106 3.295,7.6681 3.2851,7.7239 L 2.785,10.635 C 2.7836,10.6425 2.7828,10.6511 2.7828,10.6599 2.7828,10.7383 2.8464,10.8019 2.9248,10.8019 2.9494,10.8019 2.9726,10.7956 2.9927,10.7846 L 5.61,9.407 C 5.7425,9.3359 5.8999,9.2941 6.067,9.294 L 6.068,9.294 Z" />
</g>
</svg>